<svg id="Layer_1" data-name="Layer 1" xmlns="http://www.w3.org/2000/svg" viewBox="0 0 94.96 147.74"><defs><style>.cls-1{fill:#fff;}</style></defs><title>G_White</title><path class="cls-1" d="M42.56,129.37c-17.59-2.57-21.37-10.7-16.34-17.71a30.39,30.39,0,0,0,3.77.85c10.4,1.52,18.8-.75,26.72.41,13.48,2,11.64,20.21-14.15,16.45m5.07-85.06c8.46,0,14,5.15,14,14.2,0,8.9-5.54,13.73-14,13.73-8.16,0-14.16-4.68-14.16-13.73,0-8.89,5.54-14.2,14.16-14.2M59.87,95.94c-9.82-1.43-14.62.75-21.36-.23-6-.87-7.33-4.64-5.5-7.69a25.8,25.8,0,0,0,2.62.77,47.89,47.89,0,0,0,12,1.4C66.56,90.2,83,77.52,81.95,58.51,81.2,44.92,74.22,37.16,68.27,33c7.27-11.38,18.36-9.82,24.16-15.57,4-3.93,5.08-18-10.18-17.4-14.17.52-19,16.58-20.94,29.21h0a34.7,34.7,0,0,0-13.67-2.56,39,39,0,0,0-14,2.53h0C31.72,16.57,26.89.53,12.72,0-2.54-.54-1.42,13.48,2.54,17.42c5.78,5.73,16.81,4.2,24.08,15.46A30.31,30.31,0,0,0,13.16,58.51c0,7.44,1.95,13.9,5.56,19-6.65,6.11-8,16.83-4.92,23.68-15,15-10.82,40.45,26.26,45.86,49.4,7.21,57.19-45.67,19.82-51.12"/></svg>