<?xml version="1.0" encoding="utf-8"?>
<!-- Generator: Adobe Illustrator 22.0.1, SVG Export Plug-In . SVG Version: 6.00 Build 0)  -->
<svg version="1.1" id="Layer_1" xmlns="http://www.w3.org/2000/svg" xmlns:xlink="http://www.w3.org/1999/xlink" x="0px" y="0px"
	 viewBox="0 0 544 157.3" style="enable-background:new 0 0 544 157.3;" xml:space="preserve">
<style type="text/css">
	.st0{fill:#FFFFFF;}
</style>
<title>Spidnogs_White</title>
<g>
	<polygon class="st0" points="147.4,120.7 170.5,120.7 170.5,34.2 147.4,38 	"/>
	<path class="st0" d="M238.7,46.6L238.7,46.6c-2.9-3.5-6.7-6.2-11-7.8c-4.6-1.8-10.4-2.8-17.3-2.8c-6.5,0-13.1,0.5-19.5,1.5
		c-5.1,0.8-10.2,1.8-15.2,3.2v79.9h23.1V56.8c1.4-0.2,3.1-0.4,5-0.5c1.9-0.2,3.6-0.2,5.3-0.2c5.4,0,9,1.6,11,4.7s2.9,8.5,3,16v43.9
		h23.1V74c0.1-5.2-0.5-10.4-1.7-15.4C243.4,54.2,241.5,50.1,238.7,46.6z"/>
	<path class="st0" d="M408.1,79.8c0-5.8-0.8-11.6-2.4-17.1c-1.4-5.1-3.9-9.8-7.3-13.9c-3.4-4-7.6-7.1-12.3-9.2
		c-5.5-2.4-11.4-3.5-17.4-3.4c-5.9-0.1-11.8,1-17.3,3.4c-4.7,2.1-8.9,5.2-12.2,9.2c-3.3,4.1-5.8,8.8-7.3,13.9
		c-1.7,5.6-2.5,11.3-2.5,17.1c-0.1,5.8,0.8,11.5,2.5,17c1.5,5,4,9.7,7.3,13.7c3.3,4,7.4,7.1,12.2,9.1c5.5,2.3,11.4,3.4,17.3,3.3
		c6,0.1,11.9-1,17.4-3.3c4.8-2,9-5.2,12.3-9.1c3.3-4,5.8-8.7,7.3-13.7C407.4,91.3,408.2,85.5,408.1,79.8z M381.5,98.9
		c-2.6,4.4-6.8,6.7-12.7,6.7c-5.8,0-10-2.2-12.6-6.7s-3.9-10.8-3.9-19.2c0-8.3,1.3-14.7,3.9-19.1c2.6-4.4,6.8-6.6,12.6-6.7
		c5.9,0,10.1,2.2,12.7,6.7c2.6,4.4,3.9,10.8,3.9,19.1C385.4,88.1,384.1,94.5,381.5,98.9z"/>
	<path class="st0" d="M458.7,105.5L458.7,105.5c-9.8-1.4-14.6,0.8-21.4-0.2c-6-0.9-7.3-4.6-5.5-7.7c0.9,0.3,1.7,0.6,2.6,0.8
		c3.9,1,8,1.4,12,1.4c18.9,0,35.4-12.7,34.3-31.7C480,54.5,473,46.8,467,42.6c7.3-11.4,18.4-9.8,24.2-15.6c4-3.9,5.1-18-10.2-17.4
		c-14.2,0.5-19,16.6-20.9,29.2c-4.3-1.8-9-2.6-13.7-2.6c-4.8,0-9.5,0.8-14,2.5c-1.9-12.6-6.8-28.7-20.9-29.2
		C396.2,9,397.4,23.1,401.3,27c5.8,5.7,16.8,4.2,24.1,15.5c-8.5,5.7-13.6,15.4-13.5,25.6c0,7.4,2,13.9,5.6,19
		c-6.6,6.1-8,16.8-4.9,23.7c-15,15-10.8,40.5,26.3,45.9C488.2,163.8,496,111,458.7,105.5z M446.4,53.9c8.5,0,14,5.2,14,14.2
		c0,8.9-5.5,13.7-14,13.7c-8.2,0-14.2-4.7-14.2-13.7C432.2,59.2,437.8,53.9,446.4,53.9z M441.3,139c-17.6-2.6-21.4-10.7-16.3-17.7
		c1.2,0.4,2.5,0.6,3.8,0.9c10.4,1.5,18.8-0.8,26.7,0.4C469,124.5,467.1,142.8,441.3,139z"/>
	<path class="st0" d="M58.8,78.5L58.8,78.5c-1.6-1.9-3.5-3.5-5.8-4.6c-2.2-1.1-4.6-2-7-2.7c-2.5-0.6-4.9-1.2-7.1-1.9
		c-1.8-0.5-3.5-1-5.2-1.4l-1.3-0.3h-0.1c-0.5-0.1-1-0.3-1.4-0.4l-0.2-0.1c-0.4-0.1-0.8-0.3-1.2-0.5c-0.7-0.4-1.4-0.9-1.9-1.5
		c-0.9-1-1.3-2.2-1.3-3.5c0-1.1,0.4-2.2,1.3-3l0.2-0.2c0.1-0.1,0.2-0.2,0.4-0.3c0.1-0.1,0.3-0.2,0.5-0.3c0.2-0.1,0.4-0.2,0.6-0.3
		c0.2-0.1,0.4-0.2,0.7-0.2c0.2-0.1,0.5-0.1,0.8-0.2l0.4-0.1c0.4-0.1,0.9-0.1,1.4-0.2h0.4c0.5,0,1.1-0.1,1.7-0.1
		c4.6,0,9.2,1.5,12.8,4.4l13.5-13.7c-2.1-1.9-4.3-3.5-6.7-5l-0.4-0.2c-0.8-0.5-1.6-1-2.5-1.4c-0.6-0.3-1.3-0.6-1.9-0.9
		c-0.4-0.2-0.8-0.4-1.2-0.6c-4.5-2-9.3-3.1-14.2-3.1c-1.1,0-2.2,0-3.3,0.1c-2.8,0.2-5.7,0.7-8.4,1.5c-3.6,1-6.9,2.7-9.8,5
		c-2.8,2.2-5.1,5-6.7,8.3c-1.7,3.6-2.5,7.5-2.4,11.5c-0.1,3.3,0.4,6.6,1.4,9.7c0.8,2.5,2.1,4.9,3.8,7c1.6,1.9,3.5,3.5,5.7,4.7
		c2.2,1.2,4.6,2.1,7.1,2.7c2.6,0.7,5,1.4,7.3,2l6.4,1.6c4.1,1.1,6.1,2.9,6.1,5.1c0,4.4-3.7,6.5-11,6.6c-0.9,0-1.8,0-2.6-0.1
		c-5.8-0.5-11.2-3.1-15.1-7.4L0,111.5c2.4,1.9,4.9,3.7,7.5,5.2c2.3,1.4,4.8,2.5,7.4,3.4c2.6,0.9,5.2,1.5,7.9,1.9
		c3.1,0.4,6.2,0.6,9.3,0.5c4,0,8-0.6,11.8-1.8c3.7-1.1,7.1-2.9,10.1-5.3c0.2-0.1,0.3-0.3,0.5-0.4c0.4-0.3,0.8-0.7,1.2-1.1
		s0.6-0.6,0.9-0.9c0.3-0.3,0.5-0.5,0.7-0.8c1.5-1.6,2.7-3.5,3.8-5.4c1.8-3.6,2.7-7.6,2.7-11.6c0.1-3.3-0.4-6.6-1.3-9.8
		C61.7,83,60.4,80.6,58.8,78.5z"/>
	<path class="st0" d="M543,87c-0.7-2.6-1.9-5.1-3.5-7.2c-1.5-2-3.4-3.6-5.5-4.9c-2.2-1.3-4.6-2.3-7-3c-2.5-0.7-4.9-1.5-7.1-2.2
		c-1.8-0.6-3.5-1.1-5.2-1.6l-1.3-0.4h-0.1c-0.5-0.2-1-0.3-1.4-0.5l-0.2-0.1c-0.4-0.2-0.8-0.4-1.1-0.6c-0.7-0.4-1.3-0.9-1.9-1.6
		c-0.8-1-1.2-2.3-1.2-3.6c0-1.2,0.5-2.3,1.4-3c0.1-0.1,0.2-0.1,0.2-0.2c0.1-0.1,0.2-0.2,0.4-0.3c0.2-0.1,0.3-0.2,0.5-0.2
		c0.2-0.1,0.4-0.2,0.6-0.2c0.2-0.1,0.4-0.1,0.7-0.2c0.2-0.1,0.5-0.1,0.8-0.2l0.5-0.1c0.4-0.1,0.9-0.1,1.4-0.1h0.4c0.5,0,1.1,0,1.7,0
		c4.7,0.2,9.2,2,12.7,5.1L543,48.8c-2-2-4.2-3.7-6.5-5.3l-0.4-0.2c-0.8-0.5-1.6-1-2.4-1.5c-0.6-0.4-1.3-0.7-1.9-1
		c-0.4-0.2-0.8-0.4-1.1-0.6c-4.4-2.2-9.2-3.5-14.2-3.8c-1.1,0-2.2,0-3.3,0c-2.9,0.1-5.7,0.5-8.5,1.1c-3.6,0.9-7.1,2.4-10.1,4.6
		c-2.9,2.1-5.3,4.8-7.1,8c-1.9,3.5-2.9,7.4-3,11.4c-0.2,3.3,0.1,6.7,1,9.9c0.7,2.6,1.9,5,3.5,7.2c1.5,2,3.3,3.7,5.5,5
		c2.2,1.3,4.5,2.3,7,3.1c2.6,0.8,5,1.6,7.2,2.3l6.3,1.9c4,1.3,6,3.2,5.9,5.4c-0.2,4.4-4,6.4-11.3,6.1c-0.9,0-1.8-0.1-2.6-0.2
		c-0.9-0.1-1.9-0.3-2.9-0.5c-0.5-0.1-1.1-0.3-1.6-0.4c-5.6-1.8-10.3-5.5-13.3-10.5l-15.8,13.8c1.9,2.4,4,4.7,6.3,6.8
		c2,1.9,4.2,3.5,6.5,5c1.3,0.8,2.6,1.5,4,2.2c1.1,0.5,2.1,1,3.2,1.5c2.5,1,5.2,1.8,7.9,2.2h0.3l1.1,0.2c0.5,0.1,0.9,0.2,1.4,0.2
		v-0.1c2,0.3,4.3,0.5,6.6,0.6c4,0.2,8.1-0.2,12-1.3c3.7-1,7.3-2.6,10.4-4.9c0.2-0.1,0.3-0.3,0.5-0.4c0.4-0.3,0.9-0.7,1.3-1
		s0.6-0.5,0.9-0.8c0.3-0.3,0.5-0.5,0.8-0.8c1.5-1.6,2.9-3.4,4-5.3c2-3.5,3.1-7.5,3.2-11.5C544.1,93.6,543.8,90.3,543,87z"/>
	<path class="st0" d="M159,0C159,0,159,0,159,0c-7.8,0.1-14.2,6.5-14.1,14.3c0,0,0,0,0,0c0,7.8,6.3,14.1,14.1,14.1
		s14.1-6.3,14.1-14.1C173.2,6.5,166.8,0.1,159,0z"/>
	<path class="st0" d="M302.7,40.3c-2.6-1.2-5.3-2.1-8.1-2.7c-3-0.6-6-1-9-0.9c-5.3-0.1-10.5,1-15.4,3.2c-4.4,2-8.2,5-11.2,8.8
		c-3.1,4-5.4,8.6-6.8,13.5c-1.6,5.7-2.4,11.6-2.3,17.5c-0.1,6.1,0.9,12.2,2.9,17.9c3.5,10.3,11.4,18.5,21.6,22.3
		c5.8,2.1,11.9,3.2,18,3.1c2.8,0,5.7-0.1,8.8-0.4c3.1-0.3,6.1-0.6,9-1c2.9-0.4,5.8-0.9,8.5-1.5c2.7-0.6,5.1-1.2,7.1-1.8V8.9
		l-23.1,3.7V40.3z M302.7,102.1c-1.1,0.2-2.6,0.4-4.3,0.5c-1.8,0.2-3.7,0.2-5.7,0.2c-6.3,0-11.1-2.2-14.3-6.5s-4.8-10.1-4.8-17.4
		c0-15,5.5-22.5,16.4-22.5c2.4,0,4.8,0.3,7.1,1c2,0.5,3.9,1.3,5.7,2.4V102.1z"/>
	<path class="st0" d="M132.4,47.8L132.4,47.8c-3.8-3.8-8.3-6.8-13.3-8.6c-5.8-2.1-11.9-3.2-18-3.1c-2.8,0-5.7,0.1-8.8,0.4
		s-6.1,0.6-9,1c-2.9,0.4-5.8,0.9-8.4,1.5c-2.7,0.6-5.1,1.2-7.1,1.8v109.3l23.1-3.7v-27.7c2.6,1.2,5.3,2.1,8.1,2.7c3,0.6,6,1,9,0.9
		c5.3,0.1,10.5-1,15.4-3.2c4.4-2,8.2-5,11.2-8.8c3.1-4,5.4-8.6,6.8-13.5c1.6-5.7,2.4-11.6,2.3-17.5c0.1-6.1-0.9-12.2-2.9-17.9
		C139,56.3,136.1,51.7,132.4,47.8z M103.6,102.5c-2.4,0-4.8-0.3-7-1c-2-0.5-3.9-1.3-5.7-2.4V56.8c1.1-0.2,2.6-0.4,4.3-0.5
		c1.8-0.2,3.7-0.3,5.7-0.3c6.3,0,11.1,2.2,14.3,6.5S120,72.7,120,80C120,95,114.5,102.5,103.6,102.5z"/>
</g>
</svg>
