<svg id="Layer_1" data-name="Layer 1" xmlns="http://www.w3.org/2000/svg" viewBox="0 0 543.96 157.32"><defs><style>.cls-1{fill:#2d2d2d;}</style></defs><title>Spidnogs_Slate</title><polygon class="cls-1" points="147.4 120.69 170.52 120.69 170.52 34.23 147.4 37.95 147.4 120.69"/><path class="cls-1" d="M238.68,46.6a26,26,0,0,0-10.94-7.79q-6.9-2.75-17.29-2.75a123.37,123.37,0,0,0-19.54,1.5,127.43,127.43,0,0,0-15.2,3.22v79.91h23.12V56.83q2.17-.31,5-0.55t5.27-.23q8.06,0,11,4.72t2.95,16v43.89h23.11V74a64.5,64.5,0,0,0-1.71-15.42,30.55,30.55,0,0,0-5.74-12"/><path class="cls-1" d="M381.51,98.94q-3.87,6.65-12.72,6.65-8.69,0-12.56-6.65t-3.87-19.15q0-12.5,3.87-19.14T368.79,54q8.85,0,12.72,6.65t3.87,19.14q0,12.5-3.87,19.15m26.62-19.15a60.26,60.26,0,0,0-2.37-17.14,38.23,38.23,0,0,0-7.27-13.86,34.24,34.24,0,0,0-12.32-9.21,41.77,41.77,0,0,0-17.38-3.37,41.22,41.22,0,0,0-17.3,3.37,33.66,33.66,0,0,0-12.16,9.21,39.76,39.76,0,0,0-7.27,13.86,58.34,58.34,0,0,0-2.45,17.14,56.71,56.71,0,0,0,2.45,17,39.91,39.91,0,0,0,7.27,13.7,32.81,32.81,0,0,0,12.16,9.13,42.13,42.13,0,0,0,17.3,3.29,42.7,42.7,0,0,0,17.38-3.29,33.38,33.38,0,0,0,12.32-9.13,38.34,38.34,0,0,0,7.27-13.7,58.58,58.58,0,0,0,2.37-17"/><path class="cls-1" d="M441.34,139c-17.59-2.57-21.37-10.7-16.34-17.71a30.39,30.39,0,0,0,3.77.85c10.4,1.52,18.8-.75,26.72.41,13.48,2,11.64,20.21-14.15,16.45m5.07-85.06c8.46,0,14,5.15,14,14.2,0,8.9-5.54,13.73-14,13.73-8.16,0-14.16-4.68-14.16-13.73,0-8.89,5.54-14.2,14.16-14.2m12.24,51.63c-9.82-1.43-14.62.75-21.36-.23-6-.87-7.33-4.64-5.5-7.69a25.8,25.8,0,0,0,2.62.77,47.89,47.89,0,0,0,12,1.4c18.93,0,35.37-12.67,34.32-31.68C480,54.5,473,46.75,467,42.57,474.31,31.19,485.4,32.75,491.2,27c4-3.93,5.08-18-10.18-17.4-14.17.52-19,16.58-20.94,29.21h0a34.7,34.7,0,0,0-13.67-2.56,39,39,0,0,0-14,2.53h0C430.5,26.15,425.66,10.12,411.5,9.6,396.24,9,397.36,23.07,401.32,27c5.78,5.73,16.81,4.2,24.08,15.46A30.31,30.31,0,0,0,411.94,68.1c0,7.44,1.95,13.9,5.56,19-6.65,6.11-8,16.83-4.92,23.68-15,15-10.82,40.45,26.26,45.86,49.4,7.21,57.19-45.67,19.82-51.12"/><path class="cls-1" d="M58.76,78.53A18.8,18.8,0,0,0,53,73.93,32.57,32.57,0,0,0,46,71.28q-3.77-.93-7.14-1.86c-1.81-.5-3.55-1-5.25-1.39l-1.27-.33-0.1,0c-0.5-.13-1-0.27-1.41-0.44l-0.19-.08a10.71,10.71,0,0,1-1.15-.51l0,0a6.93,6.93,0,0,1-1.92-1.49h0a5.12,5.12,0,0,1-1.3-3.5,3.9,3.9,0,0,1,1.3-3h0l0.22-.17a4.54,4.54,0,0,1,.36-0.27c0.15-.1.31-0.18,0.47-0.27s0.37-.18.57-0.26,0.42-.16.65-0.23,0.53-.15.82-0.22l0.44-.09c0.43-.08.88-0.14,1.36-0.18l0.39,0c0.54,0,1.1-.06,1.7-0.06h0A20.9,20.9,0,0,1,47.38,61.3h0L60.88,47.59a45.17,45.17,0,0,0-6.65-5l-0.39-.23c-0.81-.49-1.63-1-2.48-1.42-0.63-.33-1.29-0.63-1.94-0.94-0.39-.18-0.76-0.39-1.16-0.56a35.28,35.28,0,0,0-14.2-3.12h0c-1.12,0-2.22,0-3.31.13h0A40.36,40.36,0,0,0,22.35,38a28.69,28.69,0,0,0-9.8,5,23.88,23.88,0,0,0-6.67,8.26A25.43,25.43,0,0,0,3.45,62.71a30.18,30.18,0,0,0,1.41,9.74,22.51,22.51,0,0,0,3.77,7,18.68,18.68,0,0,0,5.65,4.68,29.61,29.61,0,0,0,7.06,2.73c2.61,0.72,5,1.38,7.29,1.95L35,90.45c4.08,1.14,6.12,2.86,6.12,5.14q0,6.54-11,6.55-1.34,0-2.63-.12a23.43,23.43,0,0,1-15.11-7.36L0,111.49a63.87,63.87,0,0,0,7.53,5.21,42.16,42.16,0,0,0,7.37,3.43A39.46,39.46,0,0,0,22.83,122a71.24,71.24,0,0,0,9.33.55h0A39.42,39.42,0,0,0,44,120.76a30.72,30.72,0,0,0,10.13-5.3c0.17-.13.31-0.29,0.48-0.42,0.42-.35.83-0.71,1.22-1.09s0.58-.57.86-0.86,0.49-.52.72-0.79a27.43,27.43,0,0,0,3.77-5.41,24.61,24.61,0,0,0,2.67-11.6,31.83,31.83,0,0,0-1.33-9.75,20.59,20.59,0,0,0-3.77-7"/><path class="cls-1" d="M543,87a20.8,20.8,0,0,0-3.48-7.22A18.94,18.94,0,0,0,534,74.89a32.83,32.83,0,0,0-7-3q-3.75-1.1-7.1-2.19c-1.8-.59-3.53-1.13-5.22-1.64l-1.26-.38-0.1,0c-0.5-.15-1-0.32-1.4-0.5l-0.19-.09a11.12,11.12,0,0,1-1.13-.57l0,0a7,7,0,0,1-1.87-1.58h0a5.14,5.14,0,0,1-1.16-3.58,3.92,3.92,0,0,1,1.44-3h0c0.07-.06.15-0.11,0.23-0.16a3.83,3.83,0,0,1,.38-0.26,5.27,5.27,0,0,1,.49-0.25c0.18-.08.38-0.16,0.58-0.23s0.43-.14.67-0.21,0.54-.13.84-0.18l0.45-.07c0.43-.06.89-0.1,1.38-0.12h0.4c0.54,0,1.1,0,1.71,0h0a21.05,21.05,0,0,1,12.74,5.12h0L543,48.76a45.22,45.22,0,0,0-6.48-5.29l-0.38-.25c-0.79-.53-1.6-1.05-2.43-1.54-0.62-.36-1.27-0.69-1.92-1-0.38-.2-0.75-0.42-1.14-0.62a35.55,35.55,0,0,0-14.15-3.77h0c-1.12-.05-2.23,0-3.33,0h0a40.55,40.55,0,0,0-8.47,1.14A28.8,28.8,0,0,0,494.6,42a24,24,0,0,0-7.07,8,25.53,25.53,0,0,0-3,11.41,30.32,30.32,0,0,0,1,9.86,22.65,22.65,0,0,0,3.48,7.22,18.87,18.87,0,0,0,5.47,5,30,30,0,0,0,7,3.06c2.59,0.84,5,1.61,7.25,2.29l6.32,1.93c4,1.33,6,3.16,5.93,5.45q-0.29,6.58-11.33,6.09c-0.9,0-1.77-.12-2.63-0.24h0c-0.94-.13-1.9-0.32-2.85-0.55v0c-0.53-.14-1.08-0.27-1.59-0.43a23.77,23.77,0,0,1-13.3-10.54l-15.77,13.85a60.08,60.08,0,0,0,6.3,6.77,42.88,42.88,0,0,0,6.53,5,37.79,37.79,0,0,0,4,2.15c1.06,0.54,2.13,1,3.21,1.47a39.84,39.84,0,0,0,7.89,2.23l0.27,0,1.08,0.25h0c0.46,0.1.91,0.17,1.37,0.25v-0.13q3.07,0.4,6.63.56h0a39.61,39.61,0,0,0,12-1.27,30.83,30.83,0,0,0,10.42-4.87c0.17-.13.33-0.27,0.5-0.4,0.44-.34.86-0.68,1.28-1s0.61-.55.9-0.83,0.51-.5.76-0.76a27.4,27.4,0,0,0,4-5.27,24.76,24.76,0,0,0,3.19-11.55A32.1,32.1,0,0,0,543,87"/><path class="cls-1" d="M159,0a14.21,14.21,0,0,0-14.11,14.31,14.11,14.11,0,1,0,28.22,0A14.21,14.21,0,0,0,159,0"/><path class="cls-1" d="M302.68,102.12q-1.7.32-4.34,0.55t-5.74.24q-9.46,0-14.27-6.53T273.52,79q0-22.5,16.44-22.5a27,27,0,0,1,7.06.95,19.89,19.89,0,0,1,5.66,2.36v42.31Zm0-61.82a42.79,42.79,0,0,0-8.07-2.67,40.8,40.8,0,0,0-9-.94,35.61,35.61,0,0,0-15.36,3.15,30.88,30.88,0,0,0-11.17,8.81,39.46,39.46,0,0,0-6.82,13.53,61.36,61.36,0,0,0-2.33,17.46,53,53,0,0,0,2.87,17.93,35.87,35.87,0,0,0,21.64,22.26,49.49,49.49,0,0,0,18,3.07q4.19,0,8.77-.39t9-1q4.42-.63,8.45-1.5t7.14-1.81V8.88L302.68,12.6V40.3Z"/><path class="cls-1" d="M103.56,102.45a27,27,0,0,1-7.05-.95,19.89,19.89,0,0,1-5.66-2.36V56.83c1.13-.21,2.58-0.39,4.34-0.55S98.85,56,100.92,56q9.46,0,14.28,6.53T120,79.95q0,22.5-16.44,22.5m28.85-54.67a37,37,0,0,0-13.34-8.65,49.5,49.5,0,0,0-18-3.07q-4.19,0-8.77.39t-9,1q-4.42.63-8.45,1.5t-7.14,1.81V150.07l23.12-3.72v-27.7a42.79,42.79,0,0,0,8.07,2.67,40.93,40.93,0,0,0,9,.94,35.62,35.62,0,0,0,15.36-3.15,30.92,30.92,0,0,0,11.17-8.81,39.45,39.45,0,0,0,6.82-13.53,61.43,61.43,0,0,0,2.33-17.46,53,53,0,0,0-2.87-17.93,37.22,37.22,0,0,0-8.3-13.61"/></svg>